<?xml version="1.0" encoding="UTF-8" standalone="no"?>
<svg width="512" height="512" viewBox="0 0 512 512" fill="none" xmlns="http://www.w3.org/2000/svg">
  <circle cx="256" cy="256" r="240" fill="white" stroke="#0B1F3A" stroke-width="4"/>
  <path d="M256 96C196.5 96 145.4 138.6 133.4 196.4C162.8 177.3 198.1 168 236 168C243.4 168 251 168.4 258.3 169.3C273.9 154.5 293.5 145 315 145C315.3 145 315.5 145 315.8 145C309.6 128.8 294.9 117 277.2 117C262.7 117 250.3 125.8 245.3 138.5C233.6 132.3 220.5 129 206.7 129C171.1 129 141.5 153.6 134.2 187.5C115.5 203.4 101.9 226 96.7 252C96.2 255.3 96 258.7 96 262C96 315.1 139.1 358 193 358C199.9 358 206.5 357.2 213 355.8C228.3 391.5 264.1 416 305.3 416C354.7 416 396.6 378.5 401 330.4C405.3 328.8 409.4 326.9 413.2 324.6C413.7 318.5 414 312.3 414 306C414 235.9 342.1 179 256 179C203.7 179 157.4 200.7 129.1 235.9C135.9 187.2 177.9 149 228.8 149C238.7 149 248.3 150.7 257.2 153.8C266.5 158.5 277.2 161 288.6 161C315.5 161 339 146.4 351.1 124.3C338.4 106.8 318.5 96 296.2 96C281 96 267.1 101.4 256 110.5C245 101.4 231.1 96 215.9 96H216H256Z" fill="#0B1F3A"/>
</svg>
